<svg width="20" height="20" viewBox="0 0 20 20" fill="none" xmlns="http://www.w3.org/2000/svg">
<path d="M14.4501 4.55008C14.2523 4.55008 14.059 4.60873 13.8945 4.71861C13.7301 4.82849 13.6019 4.98467 13.5262 5.1674C13.4505 5.35012 13.4307 5.55119 13.4693 5.74517C13.5079 5.93915 13.6031 6.11734 13.743 6.25719C13.8828 6.39704 14.061 6.49228 14.255 6.53087C14.449 6.56945 14.65 6.54965 14.8328 6.47396C15.0155 6.39827 15.1717 6.2701 15.2816 6.10565C15.3914 5.9412 15.4501 5.74786 15.4501 5.55008C15.4501 5.28486 15.3447 5.03051 15.1572 4.84297C14.9697 4.65544 14.7153 4.55008 14.4501 4.55008ZM18.2834 6.56675C18.2672 5.87533 18.1377 5.19125 17.9001 4.54175C17.6882 3.98603 17.3584 3.48281 16.9334 3.06675C16.5208 2.6396 16.0164 2.3119 15.4584 2.10841C14.8106 1.86355 14.1258 1.73109 13.4334 1.71675C12.5501 1.66675 12.2667 1.66675 10.0001 1.66675C7.73341 1.66675 7.45008 1.66675 6.56675 1.71675C5.87437 1.73109 5.18953 1.86355 4.54175 2.10841C3.98481 2.31396 3.48086 2.64138 3.06675 3.06675C2.6396 3.4794 2.3119 3.98378 2.10841 4.54175C1.86355 5.18953 1.73109 5.87437 1.71675 6.56675C1.66675 7.45008 1.66675 7.73341 1.66675 10.0001C1.66675 12.2667 1.66675 12.5501 1.71675 13.4334C1.73109 14.1258 1.86355 14.8106 2.10841 15.4584C2.3119 16.0164 2.6396 16.5208 3.06675 16.9334C3.48086 17.3588 3.98481 17.6862 4.54175 17.8917C5.18953 18.1366 5.87437 18.2691 6.56675 18.2834C7.45008 18.3334 7.73341 18.3334 10.0001 18.3334C12.2667 18.3334 12.5501 18.3334 13.4334 18.2834C14.1258 18.2691 14.8106 18.1366 15.4584 17.8917C16.0164 17.6883 16.5208 17.3606 16.9334 16.9334C17.3603 16.5189 17.6904 16.0152 17.9001 15.4584C18.1377 14.8089 18.2672 14.1248 18.2834 13.4334C18.2834 12.5501 18.3334 12.2667 18.3334 10.0001C18.3334 7.73341 18.3334 7.45008 18.2834 6.56675ZM16.7834 13.3334C16.7773 13.8624 16.6815 14.3865 16.5001 14.8834C16.367 15.2461 16.1533 15.5738 15.8751 15.8417C15.6048 16.1172 15.2778 16.3304 14.9167 16.4667C14.4198 16.6482 13.8957 16.744 13.3667 16.7501C12.5334 16.7917 12.2251 16.8001 10.0334 16.8001C7.84175 16.8001 7.53341 16.8001 6.70008 16.7501C6.15082 16.7604 5.60391 16.6758 5.08341 16.5001C4.73823 16.3568 4.42621 16.1441 4.16675 15.8751C3.89016 15.6074 3.67912 15.2794 3.55008 14.9167C3.34663 14.4127 3.23378 13.8767 3.21675 13.3334C3.21675 12.5001 3.16675 12.1917 3.16675 10.0001C3.16675 7.80841 3.16675 7.50008 3.21675 6.66675C3.22048 6.12596 3.31921 5.59004 3.50841 5.08341C3.65512 4.73167 3.8803 4.41813 4.16675 4.16675C4.41993 3.88022 4.73282 3.65266 5.08341 3.50008C5.59137 3.31678 6.12675 3.22098 6.66675 3.21675C7.50008 3.21675 7.80841 3.16675 10.0001 3.16675C12.1917 3.16675 12.5001 3.16675 13.3334 3.21675C13.8624 3.22282 14.3865 3.31862 14.8834 3.50008C15.2621 3.64062 15.602 3.86912 15.8751 4.16675C16.1482 4.42273 16.3615 4.73569 16.5001 5.08341C16.6853 5.59086 16.7812 6.12656 16.7834 6.66675C16.8251 7.50008 16.8334 7.80841 16.8334 10.0001C16.8334 12.1917 16.8251 12.5001 16.7834 13.3334ZM10.0001 5.72508C9.15492 5.72673 8.32922 5.97885 7.62729 6.4496C6.92537 6.92034 6.37873 7.58858 6.05644 8.36988C5.73416 9.15117 5.65068 10.0105 5.81658 10.8392C5.98247 11.6679 6.39028 12.4289 6.98848 13.0259C7.58668 13.6229 8.34842 14.0293 9.17746 14.1935C10.0065 14.3578 10.8656 14.2727 11.6463 13.9489C12.427 13.6251 13.0941 13.0771 13.5635 12.3743C14.0329 11.6714 14.2834 10.8452 14.2834 10.0001C14.2845 9.43767 14.1744 8.88059 13.9594 8.36088C13.7445 7.84117 13.4289 7.36909 13.0308 6.97179C12.6327 6.57449 12.16 6.25981 11.6399 6.04586C11.1198 5.8319 10.5625 5.72288 10.0001 5.72508ZM10.0001 12.7751C9.45124 12.7751 8.91472 12.6123 8.45837 12.3074C8.00203 12.0025 7.64635 11.5691 7.43632 11.062C7.22628 10.555 7.17133 9.997 7.2784 9.45871C7.38548 8.92041 7.64977 8.42595 8.03786 8.03786C8.42595 7.64977 8.92041 7.38548 9.45871 7.2784C9.997 7.17133 10.555 7.22628 11.062 7.43632C11.5691 7.64635 12.0025 8.00203 12.3074 8.45837C12.6123 8.91472 12.7751 9.45124 12.7751 10.0001C12.7751 10.3645 12.7033 10.7253 12.5638 11.062C12.4244 11.3987 12.22 11.7046 11.9623 11.9623C11.7046 12.22 11.3987 12.4244 11.062 12.5638C10.7253 12.7033 10.3645 12.7751 10.0001 12.7751Z" fill="#DDDDDD"/>
</svg>
