<svg width="20" height="20" viewBox="0 0 20 20" fill="none" xmlns="http://www.w3.org/2000/svg">
<path d="M6.90841 16.8777C13.1976 16.8777 16.6376 11.6669 16.6376 7.14858C16.6376 7.00025 16.6376 6.85275 16.6276 6.70692C17.2969 6.22236 17.8745 5.62243 18.3334 4.93525C17.7093 5.21192 17.0472 5.39338 16.3692 5.47358C17.0831 5.04613 17.6174 4.37387 17.8726 3.58192C17.2015 3.98016 16.4673 4.26086 15.7017 4.41192C15.1862 3.86339 14.5043 3.50011 13.7614 3.37834C13.0186 3.25656 12.2563 3.38308 11.5927 3.73831C10.929 4.09353 10.401 4.65765 10.0903 5.3433C9.77967 6.02896 9.70372 6.7979 9.87425 7.53108C8.51474 7.46295 7.18475 7.10969 5.97062 6.49422C4.75649 5.87876 3.68535 5.01485 2.82675 3.95858C2.38951 4.71125 2.25557 5.60227 2.45219 6.45022C2.64882 7.29817 3.16122 8.03931 3.88508 8.52275C3.34113 8.507 2.80894 8.36067 2.33341 8.09608V8.13942C2.33374 8.92883 2.60708 9.69384 3.10708 10.3047C3.60708 10.9156 4.30297 11.3347 5.07675 11.4911C4.57326 11.6283 4.04499 11.6483 3.53258 11.5494C3.75105 12.229 4.17648 12.8233 4.74935 13.2491C5.32223 13.6749 6.01389 13.9111 6.72758 13.9244C6.01851 14.4816 5.20657 14.8934 4.33819 15.1365C3.4698 15.3796 2.56202 15.4491 1.66675 15.3411C3.23058 16.3447 5.05024 16.877 6.90841 16.8744" fill="#DDDDDD"/>
</svg>
